<?xml version="1.0" encoding="UTF-8"?>
<svg version="1.1" xmlns="http://www.w3.org/2000/svg" width="512" height="512">
<path d="M0 0 C2.95839355 -0.02689449 5.91654427 -0.04678741 8.875 -0.0625 C9.71675781 -0.07087891 10.55851562 -0.07925781 11.42578125 -0.08789062 C12.23144531 -0.09111328 13.03710938 -0.09433594 13.8671875 -0.09765625 C14.98262939 -0.10551147 14.98262939 -0.10551147 16.12060547 -0.11352539 C18 0 18 0 20 1 C20.78375 0.979375 21.5675 0.95875 22.375 0.9375 C25.21642204 1.00515291 26.5631627 1.61912553 29 3 C29.99 3.33 30.98 3.66 32 4 C53.13646246 12.22926001 69.1326825 24.87854455 78.8125 45.875 C79.94545964 48.46572682 81.02611199 51.06599735 82.06640625 53.6953125 C82.94040984 55.9932602 82.94040984 55.9932602 84.125 58 C85.19376273 60.44288623 85.1465693 62.36175261 85 65 C85.33 65 85.66 65 86 65 C86.0580772 69.08327357 86.09362249 73.16644083 86.125 77.25 C86.14175781 78.40886719 86.15851563 79.56773437 86.17578125 80.76171875 C86.18222656 81.87675781 86.18867188 82.99179688 86.1953125 84.140625 C86.20578613 85.16704102 86.21625977 86.19345703 86.22705078 87.25097656 C85.9960532 90.04778603 85.37739368 91.59672457 84 94 C83.62624238 96.02633579 83.62624238 96.02633579 83.5 98.0625 C83 102 83 102 81 105 C80.67 105.66 80.34 106.32 80 107 C78.66666667 109.66666667 77.33333333 112.33333333 76 115 C76.78503906 115.7734375 77.57007813 116.546875 78.37890625 117.34375 C85.69345421 124.58259006 92.56665741 131.95832177 99 140 C99.556875 140.515625 100.11375 141.03125 100.6875 141.5625 C103.24234998 144.36066902 103.15704116 147.98212289 103.1875 151.625 C103.20167969 152.40101563 103.21585938 153.17703125 103.23046875 153.9765625 C103 156 103 156 101 158 C100.43584914 159.24001475 99.89688871 160.49161415 99.375 161.75 C97.33371939 166.00266795 94.66665449 168.1647881 90.8046875 170.7734375 C88.86727767 172.00782581 88.86727767 172.00782581 87 174 C83.8828125 174.30078125 83.8828125 174.30078125 80.125 174.3125 C78.89007813 174.32925781 77.65515625 174.34601563 76.3828125 174.36328125 C72.76763499 173.97504625 71.59432693 173.43397118 69 171 C68.44441406 170.54882812 67.88882813 170.09765625 67.31640625 169.6328125 C62.77605803 165.72952873 58.4916245 161.59700662 54.25 157.375 C53.69513916 156.82473145 53.14027832 156.27446289 52.56860352 155.70751953 C49.49124947 152.61853878 46.65648114 149.46890012 44 146 C43.38125 146.350625 42.7625 146.70125 42.125 147.0625 C41.42375 147.371875 40.7225 147.68125 40 148 C39.34 147.67 38.68 147.34 38 147 C37.67 147.66 37.34 148.32 37 149 C35.01363702 149.70626239 33.01151741 150.36893571 31 151 C30.35675781 151.33773437 29.71351563 151.67546875 29.05078125 152.0234375 C22.42665839 155.17778172 13.68248128 154.09821873 6.5 154.125 C5.6028125 154.12967285 4.705625 154.1343457 3.78125 154.13916016 C2.935625 154.13706543 2.09 154.1349707 1.21875 154.1328125 C0.45498047 154.13168457 -0.30878906 154.13055664 -1.09570312 154.12939453 C-3 154 -3 154 -5 153 C-6.423125 152.7834375 -6.423125 152.7834375 -7.875 152.5625 C-10.73587365 152.04754274 -12.46534503 151.30820902 -15 150 C-15.886875 149.835 -16.77375 149.67 -17.6875 149.5 C-18.450625 149.335 -19.21375 149.17 -20 149 C-20.33 148.34 -20.66 147.68 -21 147 C-22.84484581 146.08411475 -22.84484581 146.08411475 -25.0625 145.25 C-39.71065647 138.88023651 -51.93353756 125.11157605 -59 111 C-59 110.34 -59 109.68 -59 109 C-59.66 108.67 -60.32 108.34 -61 108 C-62.1875 105.5625 -62.1875 105.5625 -63 103 C-62.505 102.01 -62.505 102.01 -62 101 C-62.66 101 -63.32 101 -64 101 C-64.144375 100.0925 -64.28875 99.185 -64.4375 98.25 C-64.93018789 93.77839928 -64.93018789 93.77839928 -67 90 C-67.25423019 85.73534198 -67.18523163 81.45883273 -67.1875 77.1875 C-67.19974609 75.98544922 -67.21199219 74.78339844 -67.22460938 73.54492188 C-67.22654297 72.38927734 -67.22847656 71.23363281 -67.23046875 70.04296875 C-67.23457764 68.98102295 -67.23868652 67.91907715 -67.24291992 66.82495117 C-66.99758585 63.97192547 -66.36214952 62.46625919 -65 60 C-64.835 58.845 -64.67 57.69 -64.5 56.5 C-64.05349549 53.37446843 -63.55822629 51.65815072 -62 49 C-61.7215625 48.42894531 -61.443125 47.85789063 -61.15625 47.26953125 C-52.81020146 30.88759137 -40.21661696 15.529905 -23 8 C-22.34 8 -21.68 8 -21 8 C-20.67 7.34 -20.34 6.68 -20 6 C-18.34080104 5.63128912 -16.67225729 5.30404678 -15 5 C-12.55647354 4.10602691 -10.31291163 3.18169062 -8.0625 1.875 C-5.31563094 0.70966161 -2.94998931 0.86590958 0 1 C0 0.67 0 0.34 0 0 Z M2 44 C0.66893378 44.34227417 -0.66400079 44.67751743 -2 45 C-2 45.66 -2 46.32 -2 47 C-2.99 46.67 -3.98 46.34 -5 46 C-11.47549131 49.4241404 -17.56970702 55.35275291 -20.25 62.1875 C-20.4975 63.115625 -20.745 64.04375 -21 65 C-21.33773437 65.56976563 -21.67546875 66.13953125 -22.0234375 66.7265625 C-24.46833387 72.41828125 -23.82303331 80.76398266 -22.3125 86.703125 C-21.36866734 88.95259285 -20.2995598 90.93694881 -19 93 C-18.5875 93.69609375 -18.175 94.3921875 -17.75 95.109375 C-13.36291942 101.73984906 -7.10034161 106.01026237 0.625 107.875 C1.40875 107.91625 2.1925 107.9575 3 108 C3 108.33 3 108.66 3 109 C5.08304538 109.05418326 7.16649768 109.09287551 9.25 109.125 C10.41015625 109.14820313 11.5703125 109.17140625 12.765625 109.1953125 C15.88792563 109.00676778 17.37094604 108.56100079 20 107 C20.9075 106.7525 21.815 106.505 22.75 106.25 C31.57759037 102.85477294 36.91987612 96.42042957 41 88 C42.026128 83.62421277 42.16328139 79.36028673 42.1875 74.875 C42.20167969 73.67617187 42.21585937 72.47734375 42.23046875 71.2421875 C42.01054124 68.14829201 41.57513466 66.59956434 40 64 C39.731875 63.236875 39.46375 62.47375 39.1875 61.6875 C35.94962193 54.35967069 31.15922923 49.65316834 24 46 C22.33760629 45.64597171 20.67080043 45.31195324 19 45 C18.34128906 44.65324219 17.68257812 44.30648437 17.00390625 43.94921875 C14.51775831 42.77156973 12.67616885 42.76706206 9.9375 42.8125 C9.08027344 42.81894531 8.22304687 42.82539063 7.33984375 42.83203125 C4.84522032 42.91409966 4.84522032 42.91409966 2 44 Z M42 74 C42 75.65 42 77.3 42 79 C42.33 79 42.66 79 43 79 C43 77.35 43 75.7 43 74 C42.67 74 42.34 74 42 74 Z M81 100 C82 102 82 102 82 102 Z " fill="#F68504" transform="translate(209,137)"/>
<path d="M0 0 C0.79664063 0.433125 1.59328125 0.86625 2.4140625 1.3125 C3.47367188 1.869375 4.53328125 2.42625 5.625 3 C6.66914063 3.556875 7.71328125 4.11375 8.7890625 4.6875 C12.16284861 6.06656586 14.40268146 6.16492005 18 6 C18.66 6.33 19.32 6.66 20 7 C24.92991439 7.25946918 28.9339961 6.06632958 33.5625 4.5 C34.32691406 4.2421875 35.09132813 3.984375 35.87890625 3.71875 C36.57886719 3.4815625 37.27882813 3.244375 38 3 C38.99 2.67 39.98 2.34 41 2 C40.5359375 3.1446875 40.5359375 3.1446875 40.0625 4.3125 C37.34120722 11.19576998 36.84957415 17.94246209 39.75390625 24.890625 C43.15408528 30.64641395 48.21679177 35.39419193 53.125 39.875 C55 42 55 42 54.9375 44.25 C54 46 54 46 52 47 C51.34 46.67 50.68 46.34 50 46 C49.505 46.99 49.505 46.99 49 48 C47.01363702 48.70626239 45.01151741 49.36893571 43 50 C42.35675781 50.33773437 41.71351563 50.67546875 41.05078125 51.0234375 C34.42665839 54.17778172 25.68248128 53.09821873 18.5 53.125 C17.6028125 53.12967285 16.705625 53.1343457 15.78125 53.13916016 C14.935625 53.13706543 14.09 53.1349707 13.21875 53.1328125 C12.45498047 53.13168457 11.69121094 53.13055664 10.90429688 53.12939453 C9 53 9 53 7 52 C6.05125 51.855625 5.1025 51.71125 4.125 51.5625 C1.26412635 51.04754274 -0.46534503 50.30820902 -3 49 C-3.886875 48.835 -4.77375 48.67 -5.6875 48.5 C-6.450625 48.335 -7.21375 48.17 -8 48 C-8.33 47.34 -8.66 46.68 -9 46 C-10.84484581 45.08411475 -10.84484581 45.08411475 -13.0625 44.25 C-20.00842301 41.27475591 -25.60955736 37.21979374 -30 31 C-28.97326172 31.48146484 -28.97326172 31.48146484 -27.92578125 31.97265625 C-21.91734823 34.08242646 -14.45220549 34.27937784 -8.44921875 32.0546875 C-3.52991437 29.10866341 -0.13592307 25.49903076 2.25 20.25 C3.84509987 13.33790054 3.64413717 8.22540099 0 2 C0 1.34 0 0.68 0 0 Z " fill="#239CB9" transform="translate(197,238)"/>
<path d="M0 0 C0.76441406 -0.01417969 1.52882813 -0.02835937 2.31640625 -0.04296875 C4.4375 0.1875 4.4375 0.1875 7.4375 2.1875 C8.12585938 2.61546875 8.81421875 3.0434375 9.5234375 3.484375 C20.45581762 10.42438423 20.45581762 10.42438423 22.046875 16.5234375 C22.45267796 19.29101369 22.64082278 21.95325671 22.6875 24.75 C22.71328125 25.67941406 22.7390625 26.60882813 22.765625 27.56640625 C22.37454496 30.69039087 21.50487802 31.85336353 19.4375 34.1875 C18.62152344 35.19490234 18.62152344 35.19490234 17.7890625 36.22265625 C13.19837696 41.61307661 9.10142371 45.78223028 1.6953125 46.42578125 C-6.82375316 46.6276045 -6.82375316 46.6276045 -10.5 44.4375 C-11.5209375 43.32375 -11.5209375 43.32375 -12.5625 42.1875 C-13.861875 41.2284375 -13.861875 41.2284375 -15.1875 40.25 C-17.68909478 38.07756243 -19.08668879 36.13912241 -20.5625 33.1875 C-20.5625 32.5275 -20.5625 31.8675 -20.5625 31.1875 C-21.2225 30.8575 -21.8825 30.5275 -22.5625 30.1875 C-23.72547973 27.86154054 -23.72850691 26.40026769 -23.75 23.8125 C-23.76417969 23.04164063 -23.77835937 22.27078125 -23.79296875 21.4765625 C-23.53851038 18.94923021 -22.78159198 17.39391742 -21.5625 15.1875 C-21.35625 14.40375 -21.15 13.62 -20.9375 12.8125 C-19.1309118 9.36355889 -16.69799336 7.80457018 -13.53515625 5.6171875 C-11.54098768 4.26884678 -11.54098768 4.26884678 -10.05859375 2.5703125 C-7.19886229 -0.07288576 -3.74206136 0.03165873 0 0 Z " fill="#F38508" transform="translate(329.5625,307.8125)"/>
<path d="M0 0 C2.5 0.1875 2.5 0.1875 4.5 1.1875 C5.16 0.8575 5.82 0.5275 6.5 0.1875 C13.28612091 -0.25749154 16.39350733 0.61354893 21.6875 5 C25.46174544 9.55512381 26.00589421 14.42030597 25.5 20.1875 C23.74243654 25.85076004 21.53921907 29.01465836 16.5 32.1875 C12.2186379 33.24137375 8.70506491 33.5891883 4.5 32.1875 C4.53480469 32.95835937 4.56960937 33.72921875 4.60546875 34.5234375 C4.63253906 35.52632813 4.65960938 36.52921875 4.6875 37.5625 C4.72230469 38.56023437 4.75710937 39.55796875 4.79296875 40.5859375 C4.69628906 41.44445312 4.59960938 42.30296875 4.5 43.1875 C1.5 45.1875 1.5 45.1875 -1.125 44.875 C-3.5 44.1875 -3.5 44.1875 -4.5 43.1875 C-4.61356724 40.1811175 -4.66418912 37.19857558 -4.66796875 34.19140625 C-4.67129715 33.2875267 -4.67462555 32.38364716 -4.67805481 31.45237732 C-4.68312796 29.53653473 -4.68546302 27.62068328 -4.68530273 25.70483398 C-4.68748813 22.76596582 -4.70563665 19.82747348 -4.72460938 16.88867188 C-4.72754337 15.03125129 -4.72952813 13.17382891 -4.73046875 11.31640625 C-4.73765427 10.43304092 -4.74483978 9.5496756 -4.75224304 8.63954163 C-4.72105996 0.3540795 -4.72105996 0.3540795 0 0 Z M6.25 10.75 C3.83946826 14.10752635 3.92195459 16.14118213 4.5 20.1875 C6.02277007 22.79470318 6.02277007 22.79470318 8.5 24.1875 C11.11391389 24.43151278 11.11391389 24.43151278 13.5 23.1875 C15.6155391 21.13457246 15.6155391 21.13457246 16.5 18.1875 C15.78370344 14.34554573 15.28552878 11.97302878 12.5 9.1875 C8.59102566 8.80723613 8.59102566 8.80723613 6.25 10.75 Z " fill="#FB8400" transform="translate(117.5,414.8125)"/>
<path d="M0 0 C2.5 0.25 2.5 0.25 4.5 2.25 C4.9140625 4.8515625 4.9140625 4.8515625 5.125 7.875 C5.19976562 8.87789063 5.27453125 9.88078125 5.3515625 10.9140625 C5.42503906 12.07035156 5.42503906 12.07035156 5.5 13.25 C6.16 12.92 6.82 12.59 7.5 12.25 C13.60397596 11.74133534 16.60769166 12.19296382 21.5 16.25 C23.61689593 20.48379186 22.68493005 26.09839782 22.6875 30.75 C22.69974609 31.91660156 22.71199219 33.08320313 22.72460938 34.28515625 C22.72750977 35.95384766 22.72750977 35.95384766 22.73046875 37.65625 C22.73457764 38.68041016 22.73868652 39.70457031 22.74291992 40.75976562 C22.5 43.25 22.5 43.25 20.5 45.25 C17.4375 45 17.4375 45 14.5 44.25 C13.2736243 41.79724859 13.38584686 40.1994219 13.40234375 37.4609375 C13.40556641 36.51992188 13.40878906 35.57890625 13.41210938 34.609375 C13.42048828 33.62453125 13.42886719 32.6396875 13.4375 31.625 C13.44201172 30.63242187 13.44652344 29.63984375 13.45117188 28.6171875 C13.46297855 26.1613984 13.479446 23.70572896 13.5 21.25 C11.19 21.91 8.88 22.57 6.5 23.25 C6.470271 24.08978394 6.470271 24.08978394 6.43994141 24.9465332 C6.34462217 27.48565854 6.23497247 30.02396888 6.125 32.5625 C6.07859375 33.88411133 6.07859375 33.88411133 6.03125 35.23242188 C5.97324219 36.50375977 5.97324219 36.50375977 5.9140625 37.80078125 C5.8826416 38.58106689 5.8512207 39.36135254 5.81884766 40.1652832 C5.5 42.25 5.5 42.25 3.5 45.25 C1.1568787 44.99438677 -1.17843403 44.65729228 -3.5 44.25 C-5.18319638 40.88360724 -4.66316848 37.07759311 -4.66796875 33.375 C-4.67129715 32.49473145 -4.67462555 31.61446289 -4.67805481 30.70751953 C-4.68312167 28.84473189 -4.68546321 26.98193515 -4.68530273 25.11914062 C-4.68749114 22.26156774 -4.70565453 19.40437963 -4.72460938 16.546875 C-4.7275429 14.73958466 -4.72952797 12.93229248 -4.73046875 11.125 C-4.73765427 10.26664551 -4.74483978 9.40829102 -4.75224304 8.52392578 C-4.72105224 0.47210522 -4.72105224 0.47210522 0 0 Z " fill="#209DBB" transform="translate(300.5,402.75)"/>
<path d="M0 0 C3.90098666 1.30032889 5.6227828 2.58307572 8.375 5.625 C10.35281879 9.73277748 10.99954511 13.49754454 10 18 C6.89914429 20.06723714 6.27068319 20.24497423 2.76953125 20.1953125 C1.96708984 20.18886719 1.16464844 20.18242187 0.33789062 20.17578125 C-0.49548828 20.15902344 -1.32886719 20.14226562 -2.1875 20.125 C-3.03248047 20.11597656 -3.87746094 20.10695313 -4.74804688 20.09765625 C-6.83215243 20.07410703 -8.91611217 20.03823647 -11 20 C-10.67 20.99 -10.34 21.98 -10 23 C-6.93570224 24.53214888 -4.3834358 24.22938548 -1 24 C-0.13375 23.46375 0.7325 22.9275 1.625 22.375 C2.40875 21.92125 3.1925 21.4675 4 21 C6.8125 21.8125 6.8125 21.8125 9 23 C8.51053485 28.50648298 8.51053485 28.50648298 6.125 30.8125 C0.97919811 33.68809517 -4.25897302 33.45237319 -10 33 C-14.75852474 31.356146 -17.19569483 29.15452617 -20 25 C-21.85804418 19.42586747 -21.80631384 14.05724432 -19.3125 8.6875 C-14.74943201 0.53568458 -8.69199547 -0.72210424 0 0 Z M-11 10 C-11 10.99 -11 11.98 -11 13 C-7.04 13 -3.08 13 1 13 C0.42874646 9.25724788 0.42874646 9.25724788 -1 8 C-6.32673036 7.66143172 -6.32673036 7.66143172 -11 10 Z " fill="#FB8400" transform="translate(190,415)"/>
<path d="M0 0 C4.38424573 1.86080823 4.38424573 1.86080823 5.88671875 3.36328125 C6.76356687 9.64194677 6.98629356 16.03109699 7.13671875 22.36328125 C7.1625 23.41515625 7.18828125 24.46703125 7.21484375 25.55078125 C6.8461543 28.71097656 6.00548931 30.04378505 3.88671875 32.36328125 C3.12359375 32.19828125 2.36046875 32.03328125 1.57421875 31.86328125 C-1.97621477 31.20273548 -4.90775924 31.48571036 -8.42578125 32.05078125 C-12.86056722 32.54753487 -15.36758068 31.97656072 -19.11328125 29.36328125 C-21.84590541 27.06212406 -22.9506686 25.42026346 -23.49609375 21.875 C-23.75828105 15.55628609 -22.93112816 10.49642299 -19.11328125 5.36328125 C-13.53032276 -0.34785741 -7.81147999 -2.35355127 0 0 Z M-10.86328125 10.36328125 C-13.47391166 13.84412179 -13.95069191 16.05466373 -14.11328125 20.36328125 C-13.78328125 21.02328125 -13.45328125 21.68328125 -13.11328125 22.36328125 C-9.69571974 22.67396866 -7.71221148 22.72579165 -4.73828125 20.92578125 C-2.35154759 17.16208587 -2.77940194 13.70371232 -3.11328125 9.36328125 C-6.73452075 8.01824943 -7.66264821 8.03554813 -10.86328125 10.36328125 Z " fill="#209DBB" transform="translate(351.11328125,415.63671875)"/>
<path d="M0 0 C3.8360869 5.00822456 4.6320949 9.00303255 4.390625 15.28125 C3.63991287 20.50620641 1.26246262 24.17644289 -1.6875 28.4375 C-5.83065821 31.23693122 -10.32244876 31.45422744 -15.1875 30.62890625 C-19.72258699 29.24604829 -22.58053288 27.11784716 -25.08984375 23.0859375 C-27.42323048 17.73817565 -27.6922243 12.22272344 -25.875 6.6875 C-23.8633277 2.16123733 -20.9362832 -0.72758532 -16.8125 -3.4375 C-11.21979727 -4.55604055 -4.86548969 -2.9358925 0 0 Z M-14 6 C-16.56417383 8.56417383 -17.25787287 10.52916477 -17.375 14.0625 C-17.2869301 17.80616684 -17.2869301 17.80616684 -15.875 20 C-13.14368353 21.45670212 -11.03989923 21.32339354 -8 21 C-5.65828261 18.65828261 -5.608077 17.76939546 -5.25 14.5625 C-5.15203125 13.78003906 -5.0540625 12.99757813 -4.953125 12.19140625 C-4.81020915 9.7031751 -4.81020915 9.7031751 -7 7 C-10.56769552 6.26393501 -10.56769552 6.26393501 -14 6 Z " fill="#FB8400" transform="translate(287,418)"/>
<path d="M0 0 C0.845625 0.144375 1.69125 0.28875 2.5625 0.4375 C4.95118697 3.83066046 6.38687435 7.34864038 7.75 11.25 C8.09417969 12.22582031 8.43835938 13.20164062 8.79296875 14.20703125 C9.04691406 14.94308594 9.30085937 15.67914063 9.5625 16.4375 C9.91183594 15.36628906 10.26117188 14.29507812 10.62109375 13.19140625 C11.08057145 11.79421896 11.54021546 10.39708635 12 9 C12.23009766 8.29294922 12.46019531 7.58589844 12.69726562 6.85742188 C14.44921875 1.55078125 14.44921875 1.55078125 15.5625 0.4375 C18 0.25 18 0.25 20.5625 0.4375 C21.2225 1.0975 21.8825 1.7575 22.5625 2.4375 C21.98485464 17.45627949 15.56425144 33.86666727 4.49609375 44.1796875 C2.5625 45.4375 2.5625 45.4375 -0.9375 45.4375 C-1.7625 45.1075 -2.5875 44.7775 -3.4375 44.4375 C-4.375 41.875 -4.375 41.875 -4.4375 38.4375 C-2.73301435 36.52812732 -0.935976 34.99883062 1.09375 33.44140625 C2.89130955 31.41857473 2.89130955 31.41857473 2.47265625 28.21875 C1.30437757 23.36512871 -0.45025498 18.91408579 -2.35351562 14.31054688 C-3.97570108 10.22169686 -4.96354611 6.91888013 -4.4375 2.4375 C-2.4375 0.4375 -2.4375 0.4375 0 0 Z " fill="#FB8400" transform="translate(236.4375,414.5625)"/>
<path d="M0 0 C2.70976757 1.50128577 3.40870394 1.96218676 4.6875 4.875 C4.5625 7.3125 4.5625 7.3125 2.5625 10.3125 C-1.16051503 10.78980962 -2.22941085 10.4512261 -5.4375 8.3125 C-6.7575 8.3125 -8.0775 8.3125 -9.4375 8.3125 C-8.84582031 8.54324219 -8.25414062 8.77398437 -7.64453125 9.01171875 C-2.7034865 11.05100802 1.39659012 12.8189505 4.5625 17.3125 C5.25930519 20.14579053 5.28830752 22.48356519 4.5625 25.3125 C2.02796343 28.53204645 0.44952695 30.01682435 -3.4375 31.3125 C-8.3229142 31.70575316 -12.87089765 31.96525098 -17.4375 30.0625 C-19.54959275 28.21441884 -21.11922157 26.80258148 -22.4375 24.3125 C-22.02724359 19.90224359 -22.02724359 19.90224359 -20.4375 18.3125 C-17.5625 18 -17.5625 18 -14.4375 18.3125 C-13.963125 18.9725 -13.48875 19.6325 -13 20.3125 C-12.2265625 21.3025 -12.2265625 21.3025 -11.4375 22.3125 C-7.81186186 22.64630814 -7.81186186 22.64630814 -4.4375 22.3125 C-7.71158497 18.46801695 -12.21693978 16.95820919 -16.72265625 14.91015625 C-19.57984058 13.22873411 -20.46232781 12.42695617 -21.4375 9.3125 C-21.35421317 5.31473217 -20.95734841 3.81866819 -18.0625 1 C-12.24443243 -2.74018629 -6.18867441 -2.76041592 0 0 Z " fill="#FB8400" transform="translate(225.4375,416.6875)"/>
<path d="M0 0 C1.11375 0.226875 2.2275 0.45375 3.375 0.6875 C4.035 0.3575 4.695 0.0275 5.375 -0.3125 C9.39804984 -0.69933172 11.90827349 -0.51893672 15.625 1.125 C20.40862789 5.58247145 21.29807651 10.30547133 21.65625 16.69140625 C21.69836772 18.12732655 21.72955429 19.56360765 21.75 21 C21.77102783 22.04075684 21.77102783 22.04075684 21.79248047 23.10253906 C21.75324856 27.24502645 21.29580179 29.68170133 18.375 32.6875 C13.5 31.8125 13.5 31.8125 12.375 30.6875 C12.16300773 27.72549688 11.99838774 24.77837558 11.875 21.8125 C11.80599262 20.16910202 11.73322621 18.5258565 11.65625 16.8828125 C11.62595703 16.15078613 11.59566406 15.41875977 11.56445312 14.66455078 C11.42940254 12.47688816 11.42940254 12.47688816 10.375 9.6875 C8.37545254 9.64495644 6.37458364 9.64669217 4.375 9.6875 C2.79884699 11.26365301 3.19269558 12.90403897 3.12890625 15.08984375 C3.09603516 15.97994141 3.06316406 16.87003906 3.02929688 17.78710938 C2.96822914 19.67501184 2.91092113 21.56303977 2.85742188 23.45117188 C2.82326172 24.34255859 2.78910156 25.23394531 2.75390625 26.15234375 C2.7288501 26.973396 2.70379395 27.79444824 2.67797852 28.64038086 C2.375 30.6875 2.375 30.6875 0.375 32.6875 C-2.6875 32.4375 -2.6875 32.4375 -5.625 31.6875 C-7.80841629 27.32066742 -7.20882705 21.61720127 -7.4375 16.8125 C-7.51419922 15.61496094 -7.59089844 14.41742188 -7.66992188 13.18359375 C-7.72341797 12.03246094 -7.77691406 10.88132812 -7.83203125 9.6953125 C-7.8885083 8.63973145 -7.94498535 7.58415039 -8.00317383 6.49658203 C-7.625 3.6875 -7.625 3.6875 -5.83862305 1.29248047 C-3.625 -0.3125 -3.625 -0.3125 0 0 Z " fill="#209DBB" transform="translate(370.625,415.3125)"/>
<path d="M0 0 C4.25695281 2.67297037 5.36156383 3.38375531 6.625 8.4375 C7.04607005 13.12083016 5.54646156 16.06019252 2.6875 19.6875 C1.82125 20.533125 0.955 21.37875 0.0625 22.25 C-2.57963198 24.96166177 -3.38419313 27.05866406 -4.3125 30.6875 C-6.625 31.3125 -6.625 31.3125 -9.3125 31.6875 C-10.3025 31.0275 -11.2925 30.3675 -12.3125 29.6875 C-12.85792856 25.01239804 -12.87069503 22.7211945 -10.625 18.5625 C-8.2197154 15.57214618 -5.81006884 12.60133031 -3.3125 9.6875 C-5.9525 9.6875 -8.5925 9.6875 -11.3125 9.6875 C-11.9725 11.6675 -12.6325 13.6475 -13.3125 15.6875 C-15.625 16.3125 -15.625 16.3125 -18.3125 16.6875 C-19.3025 16.0275 -20.2925 15.3675 -21.3125 14.6875 C-21.81207741 10.94066945 -22.15409845 8.27372259 -20.36328125 4.8984375 C-15.09185346 -1.85298106 -7.73623226 -3.06529957 0 0 Z " fill="#209DBB" transform="translate(416.3125,404.3125)"/>
<path d="M0 0 C0.99 0.226875 1.98 0.45375 3 0.6875 C5.49574551 0.6875 7.61731244 0.45555819 10.0625 0.0625 C11.361875 -0.06125 12.66125 -0.185 14 -0.3125 C16 1.6875 16 1.6875 16.25 4.5625 C15 7.6875 15 7.6875 12.69921875 8.96875 C10.15508149 9.97632911 7.61433895 10.88089815 5 11.6875 C4.96261719 12.95207031 4.92523438 14.21664063 4.88671875 15.51953125 C4.82106167 17.1797173 4.75461424 18.83987222 4.6875 20.5 C4.65366211 21.75006836 4.65366211 21.75006836 4.61914062 23.02539062 C4.58369141 23.82783203 4.54824219 24.63027344 4.51171875 25.45703125 C4.48553467 26.19542236 4.45935059 26.93381348 4.43237305 27.69458008 C3.88719105 30.20746582 3.03651728 31.15179069 1 32.6875 C-1.5625 32.5625 -1.5625 32.5625 -4 31.6875 C-7.24750878 26.81623683 -6.32785434 21.41159973 -6.3125 15.6875 C-6.32861328 14.48609375 -6.34472656 13.2846875 -6.36132812 12.046875 C-6.36197266 10.89703125 -6.36261719 9.7471875 -6.36328125 8.5625 C-6.36626221 7.50804687 -6.36924316 6.45359375 -6.37231445 5.3671875 C-6 2.6875 -6 2.6875 -4.66479492 0.80078125 C-3 -0.3125 -3 -0.3125 0 0 Z " fill="#FA8400" transform="translate(153,415.3125)"/>
<path d="M0 0 C0.90492188 0.02320313 1.80984375 0.04640625 2.7421875 0.0703125 C4.10730469 0.09738281 4.10730469 0.09738281 5.5 0.125 C6.19867188 0.14820313 6.89734375 0.17140625 7.6171875 0.1953125 C7.67148709 1.94496608 7.71011573 3.69511037 7.7421875 5.4453125 C7.76539063 6.41984375 7.78859375 7.394375 7.8125 8.3984375 C7.61211782 11.26791034 7.28007625 12.85973413 5.6171875 15.1953125 C2.1796875 16.0703125 2.1796875 16.0703125 -1.3828125 16.1953125 C-2.3728125 15.5353125 -3.3628125 14.8753125 -4.3828125 14.1953125 C-4.104375 13.23625 -4.104375 13.23625 -3.8203125 12.2578125 C-3.6759375 11.5771875 -3.5315625 10.8965625 -3.3828125 10.1953125 C-3.7128125 9.8653125 -4.0428125 9.5353125 -4.3828125 9.1953125 C-4.5703125 5.7578125 -4.5703125 5.7578125 -4.3828125 2.1953125 C-2.3828125 0.1953125 -2.3828125 0.1953125 0 0 Z M-0.3828125 3.1953125 C-0.7128125 4.1853125 -1.0428125 5.1753125 -1.3828125 6.1953125 C-1.0528125 6.8553125 -0.7228125 7.5153125 -0.3828125 8.1953125 C0.9371875 8.1953125 2.2571875 8.1953125 3.6171875 8.1953125 C3.2871875 6.5453125 2.9571875 4.8953125 2.6171875 3.1953125 C1.6271875 3.1953125 0.6371875 3.1953125 -0.3828125 3.1953125 Z M-2.3828125 11.1953125 C-2.0528125 11.8553125 -1.7228125 12.5153125 -1.3828125 13.1953125 C0.2671875 12.8653125 1.9171875 12.5353125 3.6171875 12.1953125 C3.6171875 11.8653125 3.6171875 11.5353125 3.6171875 11.1953125 C1.6371875 11.1953125 -0.3428125 11.1953125 -2.3828125 11.1953125 Z " fill="#FFD600" transform="translate(160.3828125,391.8046875)"/>
<path d="M0 0 C3.5625 0.1875 3.5625 0.1875 5.5625 2.1875 C5.7578125 4.5703125 5.7578125 4.5703125 5.6875 7.3125 C5.66945313 8.22257812 5.65140625 9.13265625 5.6328125 10.0703125 C5.60960938 10.76898438 5.58640625 11.46765625 5.5625 12.1875 C4.304375 12.22875 3.04625 12.27 1.75 12.3125 C1.04230469 12.33570313 0.33460937 12.35890625 -0.39453125 12.3828125 C-2.4375 12.1875 -2.4375 12.1875 -5.4375 10.1875 C-5.29700482 8.70781676 -5.14995174 7.22875484 -5 5.75 C-4.91878906 4.92628906 -4.83757812 4.10257812 -4.75390625 3.25390625 C-4.21903233 -0.23928266 -3.72047047 0.20293475 0 0 Z M-2.4375 3.1875 C1.5625 4.1875 1.5625 4.1875 1.5625 4.1875 Z M-0.4375 6.1875 C-0.7675 7.1775 -1.0975 8.1675 -1.4375 9.1875 C-0.4475 8.8575 0.5425 8.5275 1.5625 8.1875 C0.9025 7.5275 0.2425 6.8675 -0.4375 6.1875 Z " fill="#FFD500" transform="translate(117.4375,391.8125)"/>
<path d="M0 0 C3.0625 0.3125 3.0625 0.3125 4.9375 1.4375 C6.60913625 4.22356042 6.52626624 6.13238862 6.0625 9.3125 C4.375 11.25 4.375 11.25 2.0625 12.3125 C-0.77117793 12.17427181 -2.42346785 11.63805369 -4.8125 10.125 C-5.9375 8.3125 -5.9375 8.3125 -5.75 5.25 C-4.6778982 1.37393966 -4.050591 0.43091394 0 0 Z M-0.9375 3.3125 C-1.2675 4.6325 -1.5975 5.9525 -1.9375 7.3125 C-0.6175 7.6425 0.7025 7.9725 2.0625 8.3125 C2.3925 7.3225 2.7225 6.3325 3.0625 5.3125 C2.7325 4.6525 2.4025 3.9925 2.0625 3.3125 C1.0725 3.3125 0.0825 3.3125 -0.9375 3.3125 Z " fill="#FFD600" transform="translate(136.9375,391.6875)"/>
<path d="M0 0 C3.3 0 6.6 0 10 0 C11.20272819 2.40545638 11.10071472 3.94996953 11.0625 6.625 C11.05347656 7.44226563 11.04445312 8.25953125 11.03515625 9.1015625 C11.02355469 9.72804688 11.01195312 10.35453125 11 11 C9.68 11 8.36 11 7 11 C7 8.36 7 5.72 7 3 C6.01 3.495 6.01 3.495 5 4 C4.59270772 6.32156597 4.25561323 8.6568787 4 11 C2.68 11 1.36 11 0 11 C0 7.37 0 3.74 0 0 Z " fill="#FFD600" transform="translate(144,392)"/>
<path d="M0 0 C1.32 0 2.64 0 4 0 C4 0.99 4 1.98 4 3 C4.66 3 5.32 3 6 3 C6 3.99 6 4.98 6 6 C5.34 6 4.68 6 4 6 C4 7.65 4 9.3 4 11 C4.66 11 5.32 11 6 11 C6.33 11.99 6.66 12.98 7 14 C2.25 15.125 2.25 15.125 0 14 C-0.44921875 11.6015625 -0.44921875 11.6015625 -0.6875 8.625 C-0.77386719 7.64789063 -0.86023438 6.67078125 -0.94921875 5.6640625 C-1 3 -1 3 0 0 Z " fill="#FFD600" transform="translate(125,389)"/>
<path d="M0 0 C2.375 0.6875 2.375 0.6875 3.375 1.6875 C3.08769945 4.02694736 2.75563221 6.3614143 2.375 8.6875 C0.0625 9.3125 0.0625 9.3125 -2.625 9.6875 C-3.615 9.0275 -4.605 8.3675 -5.625 7.6875 C-6 4.6875 -6 4.6875 -5.625 1.6875 C-2.625 -0.3125 -2.625 -0.3125 0 0 Z " fill="#209DBB" transform="translate(409.625,438.3125)"/>
<path d="M0 0 C2.97 0.99 5.94 1.98 9 3 C9 4.32 9 5.64 9 7 C9.99 7.33 10.98 7.66 12 8 C11.01 8.495 11.01 8.495 10 9 C8.51726301 7.87970983 7.03891114 6.75361382 5.5625 5.625 C4.32693359 4.68527344 4.32693359 4.68527344 3.06640625 3.7265625 C1 2 1 2 0 0 Z " fill="#3FACC4" transform="translate(167,269)"/>
<path d="M0 0 C0.33 0.66 0.66 1.32 1 2 C1.66 2 2.32 2 3 2 C3 3.98 3 5.96 3 8 C2.01 8.33 1.02 8.66 0 9 C0 6.03 0 3.06 0 0 Z " fill="#876036" transform="translate(306,327)"/>
<path d="M0 0 C0.33 0 0.66 0 1 0 C1 2.97 1 5.94 1 9 C0.01 8.67 -0.98 8.34 -2 8 C-2 6.02 -2 4.04 -2 2 C-1.34 2 -0.68 2 0 2 C0 1.34 0 0.68 0 0 Z " fill="#825722" transform="translate(311,284)"/>
<path d="M0 0 C3.3 0 6.6 0 10 0 C10 0.33 10 0.66 10 1 C6.7 1 3.4 1 0 1 C0 0.67 0 0.34 0 0 Z " fill="#000000" transform="translate(214,291)"/>
<path d="M0 0 C0.33 0 0.66 0 1 0 C1 2.64 1 5.28 1 8 C0.67 8 0.34 8 0 8 C0 5.36 0 2.72 0 0 Z " fill="#000000" transform="translate(295,210)"/>
<path d="M0 0 C2.31 0 4.62 0 7 0 C7 0.33 7 0.66 7 1 C4.69 1 2.38 1 0 1 C0 0.67 0 0.34 0 0 Z " fill="#000000" transform="translate(326,354)"/>
<path d="M0 0 C0.33 0 0.66 0 1 0 C1 2.31 1 4.62 1 7 C0.67 7 0.34 7 0 7 C0 4.69 0 2.38 0 0 Z " fill="#000000" transform="translate(352,328)"/>
<path d="M0 0 C1.98 0 3.96 0 6 0 C6 0.33 6 0.66 6 1 C4.02 1 2.04 1 0 1 C0 0.67 0 0.34 0 0 Z " fill="#000000" transform="translate(286,311)"/>
<path d="M0 0 C0.33 0 0.66 0 1 0 C1 1.65 1 3.3 1 5 C0.67 5 0.34 5 0 5 C0 3.35 0 1.7 0 0 Z " fill="#000000" transform="translate(141,211)"/>
<path d="" fill="#000000" transform="translate(0,0)"/>
<path d="" fill="#000000" transform="translate(0,0)"/>
<path d="" fill="#000000" transform="translate(0,0)"/>
<path d="" fill="#000000" transform="translate(0,0)"/>
<path d="" fill="#000000" transform="translate(0,0)"/>
<path d="" fill="#000000" transform="translate(0,0)"/>
<path d="" fill="#000000" transform="translate(0,0)"/>
<path d="" fill="#000000" transform="translate(0,0)"/>
<path d="" fill="#000000" transform="translate(0,0)"/>
<path d="" fill="#000000" transform="translate(0,0)"/>
<path d="" fill="#000000" transform="translate(0,0)"/>
<path d="" fill="#000000" transform="translate(0,0)"/>
<path d="" fill="#000000" transform="translate(0,0)"/>
<path d="" fill="#000000" transform="translate(0,0)"/>
<path d="" fill="#000000" transform="translate(0,0)"/>
<path d="" fill="#000000" transform="translate(0,0)"/>
<path d="" fill="#000000" transform="translate(0,0)"/>
<path d="" fill="#000000" transform="translate(0,0)"/>
<path d="" fill="#000000" transform="translate(0,0)"/>
<path d="" fill="#000000" transform="translate(0,0)"/>
<path d="" fill="#000000" transform="translate(0,0)"/>
<path d="" fill="#000000" transform="translate(0,0)"/>
<path d="" fill="#000000" transform="translate(0,0)"/>
</svg>
